<?xml version="1.0" standalone="no"?>
<!DOCTYPE svg PUBLIC "-//W3C//DTD SVG 20010904//EN"
 "http://www.w3.org/TR/2001/REC-SVG-20010904/DTD/svg10.dtd">
<svg version="1.0" xmlns="http://www.w3.org/2000/svg"
 width="500.000000pt" height="500.000000pt" viewBox="0 0 500.000000 500.000000"
 preserveAspectRatio="xMidYMid meet">

<g transform="translate(0.000000,500.000000) scale(0.100000,-0.100000)"
fill="#000000" stroke="none">
<path d="M1140 2739 l0 -223 50 49 c56 55 63 85 28 122 -20 21 -21 27 -10 56
7 19 12 57 12 85 l0 52 180 0 c228 0 265 -13 312 -104 30 -59 26 -137 -9 -195
-43 -69 -94 -93 -209 -99 l-94 -5 0 42 0 41 85 0 c57 0 96 5 115 15 79 41 79
179 0 220 -22 11 -64 15 -171 15 l-142 0 7 -60 c6 -49 4 -61 -8 -66 -11 -4
-16 -19 -16 -43 0 -32 -8 -45 -65 -101 -58 -58 -65 -68 -65 -105 l0 -40 90 90
c75 75 90 95 90 121 0 64 71 112 151 101 29 -4 45 0 65 16 37 29 78 14 82 -31
3 -26 -1 -34 -23 -44 -22 -10 -30 -8 -55 10 -20 15 -44 22 -75 22 -74 0 -114
-30 -115 -85 0 -25 -19 -49 -105 -135 -91 -90 -105 -109 -105 -137 0 -18 3
-33 8 -33 4 0 48 41 97 90 l90 90 130 0 c105 0 138 -4 170 -19 108 -50 154
-174 104 -278 -39 -80 -114 -123 -216 -123 -40 0 -54 5 -73 24 -40 43 -22 56
75 56 82 0 86 1 121 33 68 62 55 170 -25 215 -35 20 -54 22 -179 22 l-139 0
-82 -82 -81 -83 2 -130 3 -130 143 -3 c85 -2 142 1 142 7 0 5 -28 34 -61 65
-53 47 -60 59 -55 80 9 35 36 48 67 33 27 -14 37 -51 19 -73 -10 -11 -5 -23
24 -59 43 -52 66 -60 144 -51 110 13 191 67 240 161 21 40 26 64 26 125 1 83
-21 138 -76 197 l-30 31 26 34 c39 52 56 102 55 165 -1 104 -51 189 -140 238
l-54 30 -237 3 -238 3 0 -222z m379 -383 c7 -8 11 -27 9 -43 -2 -23 -8 -29
-34 -31 -19 -2 -36 3 -44 12 -9 12 -31 16 -77 16 -57 0 -64 2 -53 15 8 10 30
15 65 15 35 0 57 5 65 15 16 19 54 19 69 1z m99 -88 c7 -7 12 -21 12 -33 0
-12 -5 -26 -12 -33 -17 -17 -63 -15 -78 3 -10 12 -40 15 -151 15 l-139 0 0
-60 c0 -47 4 -64 20 -80 25 -25 25 -42 0 -65 -43 -39 -106 20 -67 63 11 12 17
42 19 92 l3 75 155 3 c124 2 156 5 163 17 10 18 58 20 75 3z"/>
<path d="M1472 2324 c4 -21 22 -23 26 -1 2 10 -3 17 -13 17 -10 0 -15 -6 -13
-16z"/>
<path d="M1571 2246 c-12 -14 -5 -26 16 -26 15 0 18 26 4 34 -5 3 -14 0 -20
-8z"/>
<path d="M1220 2045 c0 -8 9 -15 20 -15 11 0 20 7 20 15 0 8 -9 15 -20 15 -11
0 -20 -7 -20 -15z"/>
<path d="M1232 2718 c7 -19 38 -22 38 -4 0 10 -9 16 -21 16 -12 0 -19 -5 -17
-12z"/>
<path d="M1554 2699 c-3 -6 0 -15 7 -20 22 -14 29 -11 29 11 0 21 -24 27 -36
9z"/>
<path d="M2326 2703 c-3 -3 -6 -62 -6 -130 l0 -123 24 0 c22 0 25 5 28 43 2
34 7 43 25 45 16 2 29 -8 53 -42 25 -37 37 -46 61 -46 l30 0 -31 45 -32 46 26
20 c20 16 26 29 26 60 0 58 -26 79 -97 80 -32 0 -67 2 -79 4 -12 3 -24 2 -28
-2z m148 -65 c19 -30 -4 -53 -58 -56 l-46 -3 0 34 c0 18 3 37 7 41 14 14 86 1
97 -16z"/>
<path d="M2629 2589 c-30 -67 -55 -126 -57 -130 -2 -5 9 -9 25 -9 23 0 31 6
40 30 11 28 14 30 68 30 54 0 57 -2 68 -30 9 -23 17 -30 39 -30 15 0 28 2 28
4 0 3 -77 179 -100 229 -8 17 -21 27 -35 27 -17 0 -30 -21 -76 -121z m99 -1
c11 -28 11 -28 -24 -28 -19 0 -33 4 -30 9 3 4 10 21 16 36 11 30 19 26 38 -17z"/>
<path d="M2923 2700 c-43 -17 -58 -84 -25 -113 9 -8 31 -19 47 -22 37 -9 75
-32 75 -45 0 -24 -46 -32 -85 -16 -28 12 -41 13 -51 5 -21 -17 -17 -25 20 -43
52 -25 112 -21 141 9 46 45 29 95 -42 121 -60 22 -73 32 -66 50 6 16 68 19 78
4 10 -16 23 -12 35 10 10 18 7 22 -24 35 -39 17 -70 18 -103 5z"/>
<path d="M3165 2698 c-72 -41 -54 -114 33 -138 52 -13 68 -32 47 -54 -20 -20
-26 -20 -72 -1 -29 12 -38 13 -45 3 -13 -21 -10 -27 22 -43 46 -24 106 -20
135 10 47 46 24 107 -48 126 -51 13 -68 26 -60 45 6 16 68 19 78 4 10 -16 23
-12 35 10 10 18 7 22 -24 35 -42 18 -74 19 -101 3z"/>
<path d="M3374 2701 c-2 -2 -4 -60 -4 -128 l0 -124 97 3 c92 3 96 4 98 26 2
21 -2 22 -72 22 l-73 0 0 30 0 30 66 0 c57 0 65 2 62 18 -3 14 -16 18 -66 20
-61 3 -62 3 -62 32 l0 30 70 0 c66 0 70 1 70 23 0 21 -3 22 -91 22 -50 0 -93
-2 -95 -4z"/>
<path d="M3634 2701 c-2 -2 -4 -60 -4 -128 l0 -123 25 0 c22 0 25 4 25 39 0
30 4 40 20 44 22 6 40 -9 67 -53 13 -22 25 -30 45 -30 35 0 35 4 2 52 l-27 38
27 21 c20 16 26 29 26 58 0 58 -26 75 -122 81 -44 3 -82 3 -84 1z m140 -57
c35 -34 11 -64 -51 -64 l-43 0 0 40 c0 40 0 40 39 40 23 0 46 -7 55 -16z"/>
<path d="M2040 2574 l0 -126 89 4 c70 2 93 7 110 22 26 24 27 70 3 94 -16 16
-17 22 -5 37 19 26 16 52 -7 75 -17 17 -33 20 -105 20 l-85 0 0 -126z m148 74
c21 -21 -5 -48 -48 -48 -43 0 -54 10 -45 40 5 15 15 20 44 20 20 0 42 -5 49
-12z m10 -97 c8 -5 12 -17 10 -27 -2 -15 -14 -20 -56 -22 -54 -3 -71 9 -58 43
6 17 81 21 104 6z"/>
<path d="M2050 2320 c0 -5 14 -10 30 -10 l30 0 0 -86 c0 -54 4 -83 10 -79 6 3
10 42 10 86 l0 79 30 0 c17 0 30 5 30 10 0 6 -30 10 -70 10 -40 0 -70 -4 -70
-10z"/>
<path d="M2292 2238 l3 -93 63 -2 c34 0 62 3 62 8 0 5 -25 9 -55 9 l-55 0 0
35 c0 35 0 35 45 35 25 0 45 5 45 10 0 6 -20 10 -45 10 -43 0 -45 1 -45 30 0
30 1 30 55 30 30 0 55 5 55 10 0 6 -28 10 -65 10 l-66 0 3 -92z"/>
<path d="M2535 2305 c-18 -17 -25 -35 -25 -64 0 -53 7 -69 41 -86 39 -21 73
-19 100 6 21 18 21 20 4 13 -76 -28 -129 -3 -129 59 0 22 8 45 20 58 16 18 26
20 74 16 50 -5 53 -4 36 9 -32 23 -93 18 -121 -11z"/>
<path d="M2760 2241 c0 -54 4 -91 10 -91 6 0 10 18 10 40 l0 40 55 0 55 0 0
-39 c0 -22 5 -43 10 -46 6 -4 10 28 10 89 0 57 -4 96 -10 96 -5 0 -10 -18 -10
-40 l0 -40 -55 0 -55 0 0 34 c0 19 -4 38 -10 41 -6 4 -10 -27 -10 -84z"/>
<path d="M1340 2115 c0 -8 9 -15 20 -15 11 0 20 7 20 15 0 8 -9 15 -20 15 -11
0 -20 -7 -20 -15z"/>
</g>
</svg>
